<?xml version="1.0" standalone="no"?>
<!DOCTYPE svg PUBLIC "-//W3C//DTD SVG 20010904//EN"
 "http://www.w3.org/TR/2001/REC-SVG-20010904/DTD/svg10.dtd">
<svg version="1.0" xmlns="http://www.w3.org/2000/svg"
 width="800.000000pt" height="800.000000pt" viewBox="0 0 800.000000 800.000000"
 preserveAspectRatio="xMidYMid meet">
<metadata>
Created by potrace 1.14, written by Peter Selinger 2001-2017
</metadata>
<g transform="translate(0.000000,800.000000) scale(0.100000,-0.100000)"
fill="#000000" stroke="none">
<path d="M1560 3990 l0 -2970 715 0 715 0 0 1050 0 1050 390 0 390 0 525
-1050 525 -1050 765 0 765 0 0 31 c0 21 -186 389 -594 1177 -326 631 -605
1171 -620 1199 l-26 53 77 39 c608 308 920 799 951 1501 26 574 -108 990 -426
1321 -281 294 -687 489 -1182 569 -262 43 -262 43 -1637 47 l-1333 4 0 -2971z
m2480 1859 c121 -14 193 -35 285 -79 239 -116 375 -348 392 -670 19 -375 -116
-654 -378 -784 -171 -85 -201 -88 -816 -93 l-533 -5 0 821 0 821 483 0 c277 0
519 -4 567 -11z"/>
</g>
</svg>
